# xmcd
#
# Track frame offsets:
#	150
#	11923
#	25538
#	38390
#	54200
#	66545
#	79762
#	91881
#	104454
#	117798
#	131986
#	146342
#	160384
#	172080
#	185294
#	197344
#	210501
#	223377
#	236232
#	248056
#	259918
#	275009
#	289403
#	302468
#	313881
#
# Disc length: 4307 seconds
#
# Revision: 1
# Processed by: cddbd v1.5.2PL0 Copyright (c) Steve Scherf et al.
# Submitted via: audiograbber 1.83.01
#
DISCID=7110d119
DTITLE=Various Artist - Classic Field Recordings- Landmark Country Sessions from a Los
DTITLE=t Era, CD A
DYEAR=1900
DGENRE=Country
TTITLE0=Johnny Barfield - Long Tongue Women
TTITLE1=Johnny Barfield - Ain't I Right?
TTITLE2=Johnny Barfield - Desert Lullaby
TTITLE3=Johnny Barfield - Heartaches and Tears
TTITLE4=Johnny Barfield - Don't Take My Memories
TTITLE5=Johnny Barfield - Love Me Only
TTITLE6=Johnny Barfield - Boogie Woogie
TTITLE7=Johnny Barfield - Everybody's Tryin' to Be My Baby
TTITLE8=Johnny Barfield - My Poodle Doodle Dog
TTITLE9=Johnny Barfield - That Little Shirt My Mother Made for Me
TTITLE10=Johnny Barfield - It Ain't No Good
TTITLE11=Johnny Barfield - The Now Boogie Woogie
TTITLE12=McClendon Brothers (with Georgia Dell) - The Story of Love Divine
TTITLE13=McClendon Brothers (with Georgia Dell) - Gamblin' on the Sabbath
TTITLE14=McClendon Brothers (with Georgia Dell) - My Little Mountain Lady, Quee
TTITLE14=n of Alalbam
TTITLE15=McClendon Brothers (with Georgia Dell) - Heaven Bound Gold
TTITLE16=McClendon Brothers (with Georgia Dell) - Free as I Can Be
TTITLE17=McClendon Brothers (with Georgia Dell) - Red Roses, Sweet Violets So B
TTITLE17=lue
TTITLE18=McClendon Brothers (with Georgia Dell) - Keep Your Love Letters, I'll 
TTITLE18=Keep Mine
TTITLE19=McClendon Brothers - Goodbye Baby, Goodbye
TTITLE20=McClendon Brothers - Love Hunting Blues
TTITLE21=Dewey and Gassie Bassett - There's a Grave in the Wilderness
TTITLE22=Dewey and Gassie Bassett - The Great Final Agreement
TTITLE23=Dewey and Gassie Bassett - Blue Moon
TTITLE24=Dewey and Gassie Bassett - Black Water Blues
EXTD=
EXTT0=
EXTT1=
EXTT2=
EXTT3=
EXTT4=
EXTT5=
EXTT6=
EXTT7=
EXTT8=
EXTT9=
EXTT10=
EXTT11=
EXTT12=
EXTT13=
EXTT14=
EXTT15=
EXTT16=
EXTT17=
EXTT18=
EXTT19=
EXTT20=
EXTT21=
EXTT22=
EXTT23=
EXTT24=
PLAYORDER=
